<svg xmlns="http://www.w3.org/2000/svg" viewBox="0 0 182.89929 181.49039"><defs><style>.cls-1{fill:#c22035;}.cls-2{fill:#283576;}</style></defs><title>Asset 1</title><g id="Layer_2" data-name="Layer 2"><g id="Layer_1-2" data-name="Layer 1"><g id="Layer_1-2-2" data-name="Layer 1-2"><path class="cls-1" d="M165.90672,55.09772c26.6,31.8,21.4,79.9-11.6,107.6s-81.4,24.4-108-7.4"/><path class="cls-1" d="M52.90672,134.19771c-19.5-23.6-15.4-59.1,9.1-79.4s60.2-17.6,79.7,5.9"/><path class="cls-2" d="M20.60672,86.99771c10.4-44.9,57.8-72.2,106-61.1a93.35476,93.35476,0,0,1,52.7,33.1c-10.7-27.2-35-49.2-66.7-56.5-50-11.5-99.4,17.8-110.4,65.5-8.7,37.5,9,75.2,41.2,95.2C23.60672,143.19771,14.10672,114.99771,20.60672,86.99771Z"/></g></g></g></svg>